<svg xmlns="http://www.w3.org/2000/svg" version="1" width="48" height="48" viewBox="0 0 24 24" style="fill: rgb(254, 86, 46);">
    <path d="M 3.1875 0 C 1.3875 0 5.9211895e-16 1.3875 0 3.1875 L 0 20.8125 C 0 22.6125 1.3875 24 3.1875 24 L 20.8125 24 C 22.6125 24 24 22.6125 24 20.8125 L 24 3.1875 C 24 1.3875 22.6125 5.9211895e-16 20.8125 0 L 3.1875 0 z M 3.1875 2 L 20.8125 2 C 21.5125 2 22 2.4875 22 3.1875 L 22 8 L 16.9375 8 C 15.677472 6.7560158 13.933822 6 12 6 C 10.066178 6 8.322528 6.7560158 7.0625 8 L 2 8 L 2 3.1875 C 2 2.4875 2.4875 2 3.1875 2 z M 17.3125 3 C 17.1125 3 17 3.1125 17 3.3125 L 17 6.6875 C 17 6.8875 17.1125 7 17.3125 7 L 20.6875 7 C 20.8875 7 21 6.8875 21 6.6875 L 21 3.3125 C 21 3.1125 20.8875 3 20.6875 3 L 17.3125 3 z M 12 8 C 14.8 8 17 10.2 17 13 C 17 15.8 14.8 18 12 18 C 9.2 18 7 15.8 7 13 C 7 10.2 9.2 8 12 8 z M 12 10 C 11.7 10 11.39375 10.09375 11.09375 10.09375 C 11.59375 10.29375 12 10.9 12 11.5 C 12 12.3 11.3 13 10.5 13 C 9.9 13 9.39375 12.59375 9.09375 12.09375 C 9.09375 12.39375 9 12.7 9 13 C 9 14.7 10.3 16 12 16 C 13.7 16 15 14.7 15 13 C 15 11.3 13.7 10 12 10 z"/>
</svg>