<svg id="Objects" xmlns="http://www.w3.org/2000/svg" viewBox="0 0 800 210"><defs><style>.cls-1{fill:#fff;stroke-linejoin:round;}.cls-1,.cls-5{stroke:#505050;stroke-linecap:round;stroke-width:4px;}.cls-2{font-size:63.3px;font-family:AlfaSlabOne Regular;letter-spacing:6px;}.cls-2,.cls-6,.cls-7{fill:#505050;}.cls-3{letter-spacing:1px;}.cls-4{letter-spacing:4px;}.cls-5{fill:none;stroke-miterlimit:10;}.cls-6{font-size:34.82px;font-family:Dosis Bold;letter-spacing:5px;}.cls-6,.cls-7{font-weight:700;}.cls-7{font-size:23px;font-family:Dosis ExtraBold;letter-spacing:3px;}</style></defs><title>logo</title><rect class="cls-1" x="720" y="103" width="8" height="81"/><path class="cls-1" d="M717.32,102.54s-10.37-2.21-8.16-36.74S728,23.75,728,23.75v78.8H717.32Z"/><path class="cls-1" d="M105.39,24.71l-7.7,35.62L91.32,24.71,84.94,60.32l-7.7-35.62c-3.57,25.94-7,47.85-2.87,57.6C78.22,91.3,85,94,89,94.79V184h8V94.52c4-1.07,8.82-4.06,12.31-12.21C113.48,72.55,109,50.65,105.39,24.71Z"/><text class="cls-2" transform="translate(205.95 121.43)">RES<tspan class="cls-3" x="115.4" y="0">T</tspan><tspan class="cls-4" x="148.44" y="0">A</tspan><tspan x="191.73" y="0">U</tspan><tspan x="239.02" y="0">R</tspan><tspan x="279.72" y="0">ANT</tspan></text><line class="cls-5" x1="139" y1="184" x2="256" y2="184"/><line class="cls-5" x1="563" y1="184" x2="680" y2="184"/><text class="cls-6" transform="translate(271.13 195.53)">BAR &amp; <tspan class="cls-4" x="128.15" y="0">L</tspan><tspan x="148.8" y="0">OUNGE</tspan></text><text class="cls-7" transform="translate(332.91 31.45)">F<tspan x="14.88" y="0">R</tspan><tspan x="31" y="0">OM 1950</tspan></text><line class="cls-5" x1="139" y1="24" x2="316" y2="24"/><line class="cls-5" x1="491" y1="24" x2="680" y2="24"/></svg>